<svg width="124" height="60" viewBox="0 0 124 60" fill="none" xmlns="http://www.w3.org/2000/svg">
<path fill-rule="evenodd" clip-rule="evenodd" d="M63.3576 16.8981L72.257 22.2338C73.1173 22.7646 73.6013 23.6306 73.6013 24.6643V35.3358C73.6013 36.3694 73.1173 37.2633 72.257 37.7662L63.3576 43.1019C62.4973 43.6327 61.5025 43.6327 60.6421 43.1019L51.7427 37.7662C50.8824 37.2354 50.3984 36.3694 50.3984 35.3358V24.6643C50.3984 23.6306 50.8824 22.7367 51.7427 22.2338L60.6421 16.8981C61.5025 16.3673 62.4973 16.3673 63.3576 16.8981ZM63.1694 18.658C62.4166 18.2111 61.5831 18.2111 60.8303 18.658L53.1408 23.2675C52.388 23.7144 51.9578 24.4966 51.9578 25.3906V34.6094C51.9578 35.5034 52.388 36.2856 53.1408 36.7325L60.8303 41.3419C61.5831 41.7889 62.4166 41.7889 63.1694 41.3419L70.8589 36.7325C71.6117 36.2856 72.0419 35.5034 72.0419 34.6094V25.3906C72.0419 24.4966 71.6117 23.7144 70.8589 23.2675L63.1694 18.658Z" fill="white"/>
<path fill-rule="evenodd" clip-rule="evenodd" d="M55.373 37.5148V36.0342V27.2624C55.373 26.536 55.615 25.8656 56.0452 25.3627L57.6046 26.2846C57.2551 26.7595 57.0669 27.3741 57.0669 28.0166V36.0342V38.5484V40.9788L55.373 39.9732V37.5148Z" fill="white"/>
<path fill-rule="evenodd" clip-rule="evenodd" d="M73.601 25.5024C73.4935 26.3684 73.0095 27.0948 72.2835 27.5417L69.4605 29.2458L68.6001 29.7487V40.0012L66.8794 41.0347V30.7823L67.7398 30.2795L63.4111 32.8775C62.8734 33.1848 62.3088 33.3245 61.7441 33.2406V31.1455C62.3088 31.2293 62.9002 31.0896 63.4111 30.7823L72.2835 25.4465C72.7406 25.1672 73.0901 24.804 73.3052 24.3571L73.601 24.4409C73.601 24.5247 73.601 24.6085 73.601 24.6923V25.5024Z" fill="white"/>
<path fill-rule="evenodd" clip-rule="evenodd" d="M57.415 24.357L60.3456 22.597L61.8244 23.491L58.8938 25.2509L57.415 24.357Z" fill="white"/>
</svg>
